# xmcd CD database file
#
# Track frame offsets:
#	150
#	18409
#	36447
#	46539
#	64554
#	90155
#	106627
#	120766
#	147413
#	163608
#	186954
#	210776
#	222258
#
# Disc length: 3382 seconds
#
# Revision: 0
# Processed by: cddbd v1.5.2PL0 Copyright (c) Steve Scherf et al.
# Submitted via: CDex 1.70beta2
#
DISCID=9a0d340d
DTITLE=Various Artist - Easy Modern Lounge - The Guitar Album (J&T 183)
DYEAR=2008
DGENRE=Jazz
TTITLE0=Barney Kessell/On Green Dolphin Street
TTITLE1=Billy Bauer/Lullaby of the Leaves
TTITLE2=Charlie Byrd/Spanish Guitar Blues
TTITLE3=Herb Ellis and Oscar Peterson/Lester Leaps In
TTITLE4=Jim Hall/9:20 Special
TTITLE5=Jimmy Raney/Body and Soul
TTITLE6=Johnny Smith/Moonlight in Vermont
TTITLE7=Kenny Burrell/Afternoon in Paris
TTITLE8=Laurindo Almeida and Bud Shank/Carinoso
TTITLE9=Sal Salvador/Gone With the Wind
TTITLE10=Tal Farlow/Yardbird Suite
TTITLE11=Wes Montgomery/Fingerpickin'
TTITLE12=Henri Salvador/Salvador Plays the Blues
EXTD=YEAR: 2008
EXTT0=
EXTT1=
EXTT2=
EXTT3=
EXTT4=
EXTT5=
EXTT6=
EXTT7=
EXTT8=
EXTT9=
EXTT10=
EXTT11=
EXTT12=
PLAYORDER=
